STARTFONT 2.3
FONT -FontForge-Zen Loop-Book-R-Normal--28-280-72-72-P-89-ISO10646-1
SIZE 28 72 72  4
FONTBOUNDINGBOX 24 31 -3 -7
COMMENT "Generated by fontforge, http://fontforge.sourceforge.net"
COMMENT "Copyright 2021 The Zen-Loop Project Authors (https://github.com/googlefonts/zen-loop)"
STARTPROPERTIES 40
FOUNDRY "FontForge"
FAMILY_NAME "Zen Loop"
WEIGHT_NAME "Book"
SLANT "R"
SETWIDTH_NAME "Normal"
ADD_STYLE_NAME ""
PIXEL_SIZE 28
POINT_SIZE 280
RESOLUTION_X 72
RESOLUTION_Y 72
SPACING "P"
AVERAGE_WIDTH 89
CHARSET_REGISTRY "ISO10646"
CHARSET_ENCODING "1"
FONTNAME_REGISTRY ""
CHARSET_COLLECTIONS "ISO10646-1"
BITS_PER_PIXEL 4
FONT_NAME "ZenLoop-Regular"
FACE_NAME "Zen Loop Regular"
COPYRIGHT "Copyright 2021 The Zen-Loop Project Authors (https://github.com/googlefonts/zen-loop)"
FONT_VERSION "1.000; ttfautohint (v1.8.3)"
FONT_ASCENT 22
FONT_DESCENT 6
UNDERLINE_POSITION -4
UNDERLINE_THICKNESS 1
X_HEIGHT 12
CAP_HEIGHT 18
RAW_ASCENT 800
RAW_DESCENT 200
NORM_SPACE 7
RELATIVE_WEIGHT 40
RELATIVE_SETWIDTH 50
SUPERSCRIPT_X 0
SUPERSCRIPT_Y 9
SUPERSCRIPT_SIZE 16
SUBSCRIPT_X 0
SUBSCRIPT_Y 2
SUBSCRIPT_SIZE 16
AVG_LOWERCASE_WIDTH 81
AVG_UPPERCASE_WIDTH 107
ENDPROPERTIES
CHARS 248
STARTCHAR CR
ENCODING 13
SWIDTH 600 0
DWIDTH 17 0
BBX 1 1 0 0
BITMAP
00
ENDCHAR
STARTCHAR space
ENCODING 32
SWIDTH 240 0
DWIDTH 7 0
BBX 1 1 0 0
BITMAP
00
ENDCHAR
STARTCHAR exclam
ENCODING 33
SWIDTH 141 0
DWIDTH 4 0
BBX 2 19 1 0
BITMAP
44
54
54
54
54
54
54
54
54
54
54
54
54
44
00
00
33
54
44
ENDCHAR
STARTCHAR quotedbl
ENCODING 34
SWIDTH 195 0
DWIDTH 5 0
BBX 4 6 1 13
BITMAP
8071
9081
9081
9081
9081
1010
ENDCHAR
STARTCHAR numbersign
ENCODING 35
SWIDTH 454 0
DWIDTH 13 0
BBX 13 19 0 0
BITMAP
00000800008000
00000900027000
00001800054000
00004500072000
00006300090000
00009000090000
0199D9999C9910
00009000360000
00036000630000
00064000900000
00081000900000
00090000800000
399C999AB98000
00270006400000
00450008100000
00720009000000
00900009000000
00900018000000
00800026000000
ENDCHAR
STARTCHAR dollar
ENCODING 36
SWIDTH 356 0
DWIDTH 10 0
BBX 10 24 0 -2
BITMAP
0000620000
0000720000
0000720000
0029C99300
02A1720910
0820720260
0A00720000
0900720000
0820720000
01A0720000
0029820000
0001C40000
00007A6000
0000725800
0000720470
0000720090
2000720081
4500720091
0A007201A0
0391721A30
0029CA8200
0000720000
0000720000
0000620000
ENDCHAR
STARTCHAR percent
ENCODING 37
SWIDTH 470 0
DWIDTH 13 0
BBX 11 20 1 0
BITMAP
000000000200
079A30001800
4700A0007200
910064009000
900037045000
900028090000
A00036270000
820073810000
290191900000
049816400000
000009000000
000036189500
000091920740
000181800090
0007246000A0
000905400090
0055046000A0
0090028000A0
027000A10550
0710002A9800
ENDCHAR
STARTCHAR ampersand
ENCODING 38
SWIDTH 520 0
DWIDTH 15 0
BBX 13 19 1 0
BITMAP
00005A95000000
0001900A100000
00054006300000
00072007200000
00063009000000
00054046000000
00027290000000
0000B900000000
0003D100000000
00395500049700
02900900190710
0A000810720000
64000280900000
90000094700000
9000002D200000
9000000C400000
81000073830000
28000580094000
04999600006960
ENDCHAR
STARTCHAR quotesingle
ENCODING 39
SWIDTH 121 0
DWIDTH 3 0
BBX 1 6 1 13
BITMAP
80
90
90
90
90
10
ENDCHAR
STARTCHAR parenleft
ENCODING 40
SWIDTH 233 0
DWIDTH 7 0
BBX 4 23 2 -2
BITMAP
0006
0073
0190
0630
0900
2700
6300
9100
9000
9000
9000
8000
9000
9000
9000
9000
6300
3600
0900
0720
0280
0082
0027
ENDCHAR
STARTCHAR parenright
ENCODING 41
SWIDTH 233 0
DWIDTH 7 0
BBX 5 23 0 -2
BITMAP
180000
082000
019000
008100
004600
000900
000900
000730
000450
000270
000180
000180
000170
000360
000450
000720
000900
000900
005400
009000
027000
091000
150000
ENDCHAR
STARTCHAR asterisk
ENCODING 42
SWIDTH 313 0
DWIDTH 9 0
BBX 7 6 1 13
BITMAP
00080000
00090000
78495950
017E5000
01A39000
07205500
ENDCHAR
STARTCHAR plus
ENCODING 43
SWIDTH 577 0
DWIDTH 16 0
BBX 14 13 1 0
BITMAP
00000035000000
00000036000000
00000036000000
00000036000000
00000036000000
00000036000000
488888AB888886
00000036000000
00000036000000
00000036000000
00000036000000
00000036000000
00000035000000
ENDCHAR
STARTCHAR comma
ENCODING 44
SWIDTH 145 0
DWIDTH 4 0
BBX 3 5 0 -2
BITMAP
0350
0360
0360
0540
3A00
ENDCHAR
STARTCHAR hyphen
ENCODING 45
SWIDTH 286 0
DWIDTH 8 0
BBX 6 1 1 7
BITMAP
799997
ENDCHAR
STARTCHAR period
ENCODING 46
SWIDTH 181 0
DWIDTH 5 0
BBX 1 3 2 0
BITMAP
60
90
80
ENDCHAR
STARTCHAR slash
ENCODING 47
SWIDTH 292 0
DWIDTH 8 0
BBX 8 22 0 -2
BITMAP
00000008
00000019
00000054
00000090
00000190
00000540
00000900
00001800
00005400
00009000
00018000
00063000
00090000
00180000
00630000
00900000
01800000
06300000
09000000
28000000
73000000
80000000
ENDCHAR
STARTCHAR zero
ENCODING 48
SWIDTH 378 0
DWIDTH 11 0
BBX 9 19 1 0
BITMAP
005A991000
0390019000
0A10005500
2800000900
6400000900
8100000720
9000000540
A000000450
9000000360
9000000370
9000000360
A000000450
9000000540
8200000720
6500000900
2800000900
0A10005500
0390019000
005A991000
ENDCHAR
STARTCHAR one
ENCODING 49
SWIDTH 303 0
DWIDTH 8 0
BBX 8 19 0 0
BITMAP
00399000
09829000
00009000
00009000
00009000
00009000
00009000
00009000
00009000
00009000
00009000
00009000
00009000
00009000
00009000
00009000
00009000
00009000
2999C998
ENDCHAR
STARTCHAR two
ENCODING 50
SWIDTH 343 0
DWIDTH 10 0
BBX 9 19 0 0
BITMAP
0029998100
02A1002900
0810000630
0000000360
0000000270
0000000360
0000000630
0000000A00
0000004600
000001A000
0000092000
0000740000
0004700000
0019000000
00A1000000
0550000000
0A00000000
3600000000
6A99999970
ENDCHAR
STARTCHAR three
ENCODING 51
SWIDTH 377 0
DWIDTH 11 0
BBX 9 19 1 0
BITMAP
00799A2000
084001A000
1700005500
0000002700
0000001800
0000004600
0000009100
0079987000
07406AA100
0489503800
0000000910
0000000540
0000000360
0000000360
0000000540
0000000810
2000001900
A40001A200
0799992000
ENDCHAR
STARTCHAR four
ENCODING 52
SWIDTH 389 0
DWIDTH 11 0
BBX 10 19 0 0
BITMAP
0000003500
0000009000
0000027000
0000091000
0000280000
0000820000
0001900800
0007300900
0009000900
0064000900
0090000900
0550000900
0900000900
1A99999C97
0000000900
0000000900
0000000900
0000000900
0000000800
ENDCHAR
STARTCHAR five
ENCODING 53
SWIDTH 372 0
DWIDTH 10 0
BBX 9 20 1 0
BITMAP
0000001920
00C9998300
0080000000
0080000000
0080000000
0080000000
0080000000
0080000000
02C8960000
2B8003A100
9370002800
9540000910
7800000540
0000000360
0000000360
0000000540
0000000910
2000001900
A30001A200
0799992000
ENDCHAR
STARTCHAR six
ENCODING 54
SWIDTH 360 0
DWIDTH 10 0
BBX 9 19 1 0
BITMAP
0000290000
0002A10000
000A100000
0074000000
0190000000
0720000000
0900000000
3600000000
6318993000
92A1008300
9110000900
9000000810
9000000630
9000000630
9000000810
8200000900
3700002800
093001A100
0089992000
ENDCHAR
STARTCHAR seven
ENCODING 55
SWIDTH 321 0
DWIDTH 9 0
BBX 8 19 0 0
BITMAP
2888888C
00000008
00000054
00000090
00000080
00000540
00000900
00000800
00005400
00009000
00018000
00054000
00090000
00180000
00540000
00900000
01800000
05400000
08000000
ENDCHAR
STARTCHAR eight
ENCODING 56
SWIDTH 377 0
DWIDTH 11 0
BBX 9 19 1 0
BITMAP
018A9A4000
0A30008400
4700000A00
7300000910
7200000910
5500000900
0A00004600
0390029000
004A681000
0029960000
03A1049000
1A10004700
8300000910
9000000450
9000000360
9000000550
7300000910
0A20006600
0189995000
ENDCHAR
STARTCHAR nine
ENCODING 57
SWIDTH 360 0
DWIDTH 10 0
BBX 9 19 0 0
BITMAP
0019998100
01A2003A00
0730000740
0A00000190
1900000090
2700000090
2700000090
0900000090
0910000290
0290019390
0039982270
0000000540
0000000900
0000002800
0000008100
0000038000
00001A0000
0000920000
0008300000
ENDCHAR
STARTCHAR colon
ENCODING 58
SWIDTH 181 0
DWIDTH 5 0
BBX 1 14 2 0
BITMAP
60
90
80
00
00
00
00
00
00
00
00
60
90
80
ENDCHAR
STARTCHAR semicolon
ENCODING 59
SWIDTH 165 0
DWIDTH 5 0
BBX 3 16 0 -2
BITMAP
0240
0450
0350
0000
0000
0000
0000
0000
0000
0000
0000
0350
0360
0360
0540
3A00
ENDCHAR
STARTCHAR less
ENCODING 60
SWIDTH 482 0
DWIDTH 14 0
BBX 11 11 1 1
BITMAP
000000001790
000000179300
000007930000
000693000000
069300000000
5B2000000000
018920000000
000288200000
000002882000
000000028810
000000000280
ENDCHAR
STARTCHAR equal
ENCODING 61
SWIDTH 577 0
DWIDTH 16 0
BBX 14 5 1 4
BITMAP
48888888888886
00000000000000
00000000000000
00000000000000
48888888888886
ENDCHAR
STARTCHAR greater
ENCODING 62
SWIDTH 482 0
DWIDTH 14 0
BBX 11 11 1 1
BITMAP
550000000000
05A500000000
0005A5000000
000005A50000
00000005A500
0000000006C0
000000017930
000001793000
000179300000
017930000000
493000000000
ENDCHAR
STARTCHAR question
ENCODING 63
SWIDTH 300 0
DWIDTH 8 0
BBX 7 19 0 0
BITMAP
01989700
0A100560
13000090
00000090
00000090
00000460
00000A00
00006500
00029000
00091000
00280000
00450000
00180000
00071000
00000000
00000000
00060000
00090000
00080000
ENDCHAR
STARTCHAR at
ENCODING 64
SWIDTH 748 0
DWIDTH 21 0
BBX 19 19 1 0
BITMAP
00000279999994000000
00008820000005A30000
002A3000018920085000
00A10000192180008300
08300000920090000A00
28000005500090000540
7300000A000040000190
90000055000000000090
90000090008600000090
90000190072900000090
90000540092800000280
90000810278200000720
73000900389000002900
280009001D100001A100
083008119A3000591000
01A10198207998400000
002A300000000002A100
00008820000002881000
00000179999997200000
ENDCHAR
STARTCHAR A
ENCODING 65
SWIDTH 414 0
DWIDTH 12 0
BBX 12 19 0 0
BITMAP
000008200000
00000C600000
000028900000
000064900000
0000A0640000
0000A0280000
0004600A0000
000820081000
000A00045000
001900019000
00550000A000
00999999C300
00A000003700
027000000A00
063000000900
090000000540
090000000180
460000000090
710000000071
ENDCHAR
STARTCHAR B
ENCODING 66
SWIDTH 375 0
DWIDTH 11 0
BBX 9 19 1 0
BITMAP
4A99981000
5400029000
5400006400
5400001900
5400000900
5400000900
5400000900
5479931800
548207B200
540799A300
5400002900
5400000900
5400000910
5400000810
5400000900
5400000900
5400004600
5400039000
4A99970000
ENDCHAR
STARTCHAR C
ENCODING 67
SWIDTH 366 0
DWIDTH 10 0
BBX 9 19 1 0
BITMAP
0018999600
00A2000410
0830000000
1900000000
4500000000
8100000000
9000000000
9000000000
9000000000
9000000000
9000000000
9000000000
9000000000
8100000000
4500000000
1900000000
0830000000
00A2000410
0018999600
ENDCHAR
STARTCHAR D
ENCODING 68
SWIDTH 396 0
DWIDTH 11 0
BBX 9 19 1 0
BITMAP
4A99993000
5400009300
5400001A00
5400000730
5400000270
5400000090
5400000090
5400000090
5400000090
5400000090
5400000090
5400000090
5400000090
5400000090
5400000370
5400000730
5400001A00
5400009300
4A99993000
ENDCHAR
STARTCHAR E
ENCODING 69
SWIDTH 309 0
DWIDTH 9 0
BBX 7 19 1 0
BITMAP
4A999940
54000000
54000000
54000000
54000000
54000000
54000000
54000000
5A999920
54000000
54000000
54000000
54000000
54000000
54000000
54000000
54000000
54000000
4A999940
ENDCHAR
STARTCHAR F
ENCODING 70
SWIDTH 299 0
DWIDTH 8 0
BBX 7 19 1 0
BITMAP
4A888840
54000000
54000000
54000000
54000000
54000000
54000000
54000000
5A888810
54000000
54000000
54000000
54000000
54000000
54000000
54000000
54000000
54000000
44000000
ENDCHAR
STARTCHAR G
ENCODING 71
SWIDTH 382 0
DWIDTH 11 0
BBX 9 19 1 0
BITMAP
001899A600
00A2000520
0830000000
1900000000
4500000000
8100000000
9000000000
9000000000
9000000000
9000000000
9000000000
9000299970
9000000090
8100000090
5500000090
1900000090
0830000090
00A2000370
0018999700
ENDCHAR
STARTCHAR H
ENCODING 72
SWIDTH 425 0
DWIDTH 12 0
BBX 10 19 1 0
BITMAP
4400000053
5400000063
5400000063
5400000063
5400000063
5400000063
5400000063
5400000063
5A999999B3
5400000063
5400000063
5400000063
5400000063
5400000063
5400000063
5400000063
5400000063
5400000063
4400000053
ENDCHAR
STARTCHAR I
ENCODING 73
SWIDTH 141 0
DWIDTH 4 0
BBX 2 19 1 0
BITMAP
44
54
54
54
54
54
54
54
54
54
54
54
54
54
54
54
54
54
44
ENDCHAR
STARTCHAR J
ENCODING 74
SWIDTH 142 0
DWIDTH 4 0
BBX 6 24 -3 -5
BITMAP
000044
000044
000044
000044
000044
000044
000044
000044
000044
000044
000044
000044
000044
000044
000044
000044
000044
000044
000044
000054
000063
000090
000560
399500
ENDCHAR
STARTCHAR K
ENCODING 75
SWIDTH 401 0
DWIDTH 11 0
BBX 11 19 0 0
BITMAP
008000002900
00900000A100
009000055000
009000090000
009000270000
009000810000
009002800000
17D99B100000
A29297A10000
88C710290000
009000073000
009000019000
009000009000
009000008100
009000005400
009000002700
009000000900
009000000900
008000000810
ENDCHAR
STARTCHAR L
ENCODING 76
SWIDTH 347 0
DWIDTH 10 0
BBX 8 19 1 0
BITMAP
44000000
54000000
54000000
54000000
54000000
54000000
54000000
54000000
54000000
54000000
54000000
54000000
54000000
54000000
54000000
54000000
54000000
54000000
4A999997
ENDCHAR
STARTCHAR M
ENCODING 77
SWIDTH 534 0
DWIDTH 15 0
BBX 13 19 1 0
BITMAP
07800000008600
08790000097700
09049001A40800
09003A2A200900
090003E2000900
09000777000900
09000A09000900
09000909000900
08000919000900
170003C2000810
260001D0000720
45000585000630
54000837000540
63000757000450
720002B2000360
81000000000270
90000000000180
90000000000090
80000000000080
ENDCHAR
STARTCHAR N
ENCODING 78
SWIDTH 422 0
DWIDTH 12 0
BBX 10 19 1 0
BITMAP
4500000062
5C00000072
5B30000072
5590000072
5491000072
5437000072
540A000072
5405500072
5400A00072
5400730072
5400190072
5400081072
5400027072
5400009072
5400004572
5400000972
54000006A2
54000001E2
4400000082
ENDCHAR
STARTCHAR O
ENCODING 79
SWIDTH 446 0
DWIDTH 12 0
BBX 11 19 1 0
BITMAP
001899940000
01A200075000
083000009100
190000003700
450000000900
810000000910
900000000730
900000000540
900000000450
900000000450
900000000450
900000000540
900000000730
810000000910
550000000900
190000003700
083000009100
01A200075000
001899940000
ENDCHAR
STARTCHAR P
ENCODING 80
SWIDTH 341 0
DWIDTH 10 0
BBX 8 19 1 0
BITMAP
4A889910
540001A0
54000054
54000018
54000009
54000009
54000027
54000092
54001860
5A988300
54000000
54000000
54000000
54000000
54000000
54000000
54000000
54000000
44000000
ENDCHAR
STARTCHAR Q
ENCODING 81
SWIDTH 446 0
DWIDTH 12 0
BBX 11 26 1 -7
BITMAP
001899940000
01A200075000
083000009100
190000003700
550000000900
810000000910
900000000730
900000000540
900000000450
900000000450
900000000450
A10000000540
AA2000004D30
83A300058910
550940760900
19007A503700
08305B209100
01A291985000
0018C9D40000
000090900000
000079300000
00001C000000
00006A200000
000094500000
000094600000
00004B100000
ENDCHAR
STARTCHAR R
ENCODING 82
SWIDTH 380 0
DWIDTH 11 0
BBX 10 19 0 0
BITMAP
05A8889300
0630000910
0630000280
0630000090
0630000090
0630000090
0630000180
5AA9610820
A8303A9400
19A8878100
0630001800
0630000710
0630000360
0630000090
0630000090
0630000072
0630000036
0630000009
0530000008
ENDCHAR
STARTCHAR S
ENCODING 83
SWIDTH 356 0
DWIDTH 10 0
BBX 10 19 0 0
BITMAP
0029999200
02A1000910
0820000260
0A00000000
0900000000
0810000000
0370000000
0075000000
0007700000
0000590000
000003A100
0000001A10
0000000280
0000000090
1000000081
5400000091
19000000A0
0580000940
0049999300
ENDCHAR
STARTCHAR T
ENCODING 84
SWIDTH 377 0
DWIDTH 11 0
BBX 11 19 0 0
BITMAP
58889C888820
000009000000
000009000000
000009000000
000009000000
000009000000
000009000000
000009000000
000009000000
000009000000
000009000000
000009000000
000009000000
000009000000
000009000000
000009000000
000009000000
000009000000
000008000000
ENDCHAR
STARTCHAR U
ENCODING 85
SWIDTH 412 0
DWIDTH 12 0
BBX 10 19 1 0
BITMAP
8000000062
9000000072
9000000072
9000000072
9000000072
9000000072
9000000072
9000000072
9000000072
9000000072
9000000072
9000000072
9000000072
9000000072
9000000072
8200000091
46000000A0
0A30000940
0089999400
ENDCHAR
STARTCHAR V
ENCODING 86
SWIDTH 384 0
DWIDTH 11 0
BBX 11 19 0 0
BITMAP
710000000430
450000000810
180000000900
090000001700
081000005400
045000008000
018000009000
009000017000
008100054000
004500080000
001800090000
000900170000
000810540000
000450800000
000180800000
000091700000
000086300000
00004D000000
00001A000000
ENDCHAR
STARTCHAR W
ENCODING 87
SWIDTH 534 0
DWIDTH 15 0
BBX 13 19 1 0
BITMAP
80000000000080
90000000000090
90000000000180
81000000000270
72000000000360
63000000000450
540004A3000540
45000918000630
26000909000720
17000818000810
08000665000900
090002D1000900
090000C0000900
09000776000900
09002809100900
09009101900900
09083000470800
08750000067700
07600000007600
ENDCHAR
STARTCHAR X
ENCODING 88
SWIDTH 318 0
DWIDTH 9 0
BBX 9 19 0 0
BITMAP
1700000800
0900001800
0540006300
0090009000
0081027000
0027081000
0009090000
0006840000
0001D00000
0002E10000
0007560000
0009090000
0045073000
0090018000
0180009100
0720004500
0900000900
4600000720
8100000170
ENDCHAR
STARTCHAR Y
ENCODING 89
SWIDTH 370 0
DWIDTH 10 0
BBX 10 19 0 0
BITMAP
8100000008
3700000028
0900000082
0450000190
0090000730
0064000900
0009005400
0007309000
0001946000
00008A0000
0000380000
0000270000
0000270000
0000270000
0000270000
0000270000
0000270000
0000270000
0000260000
ENDCHAR
STARTCHAR Z
ENCODING 90
SWIDTH 309 0
DWIDTH 9 0
BBX 9 19 0 0
BITMAP
2999999C00
0000002700
0000007200
0000009000
0000045000
0000081000
0000180000
0000630000
0000900000
0002700000
0008200000
0009000000
0045000000
0090000000
0180000000
0630000000
0900000000
2700000000
7A99999910
ENDCHAR
STARTCHAR bracketleft
ENCODING 91
SWIDTH 193 0
DWIDTH 5 0
BBX 5 23 1 -2
BITMAP
3A9930
540000
540000
540000
540000
540000
540000
540000
540000
540000
540000
540000
540000
540000
540000
540000
540000
540000
540000
540000
540000
540000
399930
ENDCHAR
STARTCHAR backslash
ENCODING 92
SWIDTH 292 0
DWIDTH 8 0
BBX 8 22 0 -2
BITMAP
80000000
72000000
27000000
09000000
07300000
02800000
00900000
00630000
00180000
00090000
00063000
00018000
00009000
00006300
00001800
00000900
00000540
00000180
00000090
00000054
00000019
00000008
ENDCHAR
STARTCHAR bracketright
ENCODING 93
SWIDTH 193 0
DWIDTH 5 0
BBX 4 23 0 -2
BITMAP
8998
0009
0009
0009
0009
0009
0009
0009
0009
0009
0009
0009
0009
0009
0009
0009
0009
0009
0009
0009
0009
0009
8998
ENDCHAR
STARTCHAR asciicircum
ENCODING 94
SWIDTH 416 0
DWIDTH 12 0
BBX 11 11 0 8
BITMAP
000003100000
00000A800000
000055910000
000090280000
000550091000
000A00028000
005500009100
00A000002800
054000000910
0A0000000280
440000000080
ENDCHAR
STARTCHAR underscore
ENCODING 95
SWIDTH 556 0
DWIDTH 16 0
BBX 14 1 1 -1
BITMAP
79999999999993
ENDCHAR
STARTCHAR grave
ENCODING 96
SWIDTH 201 0
DWIDTH 6 0
BBX 3 4 1 15
BITMAP
1100
2900
0730
0090
ENDCHAR
STARTCHAR a
ENCODING 97
SWIDTH 315 0
DWIDTH 9 0
BBX 9 13 0 0
BITMAP
0059990000
0470046000
0200009000
0000009000
0000009000
0000039000
0005969000
01A5009000
0920009000
1900009000
2700009000
0A00199000
0499819910
ENDCHAR
STARTCHAR b
ENCODING 98
SWIDTH 298 0
DWIDTH 8 0
BBX 7 19 1 0
BITMAP
44000000
54000000
54000000
54000000
54000000
54000000
56997000
5A006400
54000900
54000900
54000810
54000630
54000630
54000730
54000810
54000900
54000900
5A006400
46997000
ENDCHAR
STARTCHAR c
ENCODING 99
SWIDTH 275 0
DWIDTH 8 0
BBX 6 13 1 0
BITMAP
029980
0A1046
460008
810000
900000
900000
900000
900000
900000
810000
460008
0A1046
029980
ENDCHAR
STARTCHAR d
ENCODING 100
SWIDTH 298 0
DWIDTH 8 0
BBX 6 19 1 0
BITMAP
000008
000009
000009
000009
000009
000009
049959
19006A
540009
900009
900009
900009
900009
900009
900009
900009
540009
19005A
049968
ENDCHAR
STARTCHAR e
ENCODING 101
SWIDTH 285 0
DWIDTH 8 0
BBX 7 13 1 0
BITMAP
02997000
0A105500
46000A00
81000900
A0000810
B9999A10
90000000
90000000
90000000
81000000
36000800
09103800
02999000
ENDCHAR
STARTCHAR f
ENCODING 102
SWIDTH 178 0
DWIDTH 5 0
BBX 7 19 0 0
BITMAP
00059940
00580000
00A00000
00900000
00900000
00900000
89C98000
00900000
00900000
00900000
00900000
00900000
00900000
00900000
00900000
00900000
00900000
00900000
00800000
ENDCHAR
STARTCHAR g
ENCODING 103
SWIDTH 302 0
DWIDTH 8 0
BBX 10 20 -1 -5
BITMAP
0000000400
0000002700
0003A9B300
001A003900
0064000A00
0081000720
0090000630
0081000810
0055000A00
000A106500
0007C96000
0083000000
0092000000
0018A74000
0150036A60
0A20000074
1800000018
1900000027
08500002A1
0059999810
ENDCHAR
STARTCHAR h
ENCODING 104
SWIDTH 307 0
DWIDTH 9 0
BBX 7 19 1 0
BITMAP
44000000
54000000
54000000
54000000
54000000
54000000
55899500
5B100900
55000720
54000630
54000630
54000630
54000630
54000630
54000630
54000630
54000630
54000630
44000630
ENDCHAR
STARTCHAR i
ENCODING 105
SWIDTH 141 0
DWIDTH 4 0
BBX 2 17 1 0
BITMAP
44
54
44
00
44
54
54
54
54
54
54
54
54
54
54
54
44
ENDCHAR
STARTCHAR j
ENCODING 106
SWIDTH 141 0
DWIDTH 4 0
BBX 6 22 -3 -5
BITMAP
000044
000054
000044
000000
000044
000054
000054
000054
000054
000054
000054
000054
000054
000054
000054
000054
000054
000054
000063
000091
000480
199700
ENDCHAR
STARTCHAR k
ENCODING 107
SWIDTH 287 0
DWIDTH 8 0
BBX 7 19 1 0
BITMAP
44000000
54000000
54000000
54000000
54000000
54000000
54000700
54005600
54029000
540A1000
54880000
58790000
5A063000
54018000
54009000
54005500
54000900
54000810
44000350
ENDCHAR
STARTCHAR l
ENCODING 108
SWIDTH 141 0
DWIDTH 4 0
BBX 2 19 1 0
BITMAP
44
54
54
54
54
54
54
54
54
54
54
54
54
54
54
54
54
54
44
ENDCHAR
STARTCHAR m
ENCODING 109
SWIDTH 407 0
DWIDTH 11 0
BBX 9 13 1 0
BITMAP
4B200004D0
56A4008890
5409485090
5400B70090
5400A70090
5401890090
5403690090
54028A0090
5400850090
5400000090
5400000090
5400000090
4400000080
ENDCHAR
STARTCHAR n
ENCODING 110
SWIDTH 307 0
DWIDTH 9 0
BBX 7 13 1 0
BITMAP
44899500
5B100900
55000720
54000630
54000630
54000630
54000630
54000630
54000630
54000630
54000630
54000630
44000630
ENDCHAR
STARTCHAR o
ENCODING 111
SWIDTH 309 0
DWIDTH 9 0
BBX 7 13 1 0
BITMAP
02997000
0A104600
46000900
81000630
90000360
90000270
90000180
90000270
90000460
81000730
46000900
0A104600
02997000
ENDCHAR
STARTCHAR p
ENCODING 112
SWIDTH 299 0
DWIDTH 8 0
BBX 8 20 0 -5
BITMAP
02200000
04400000
06B99700
6A400550
04400090
04400090
04400072
04400063
04400064
04400063
04400072
04400090
04400090
04A00550
04799700
04400000
04400000
04400000
04400000
04400000
ENDCHAR
STARTCHAR q
ENCODING 113
SWIDTH 286 0
DWIDTH 8 0
BBX 8 18 1 -5
BITMAP
04996800
19006A00
54000900
90000900
90000900
90000900
90000900
90000900
90000900
90000900
54000900
19005A00
04996900
00000900
00000900
00000900
00000900
00000691
ENDCHAR
STARTCHAR r
ENCODING 114
SWIDTH 277 0
DWIDTH 8 0
BBX 7 13 1 0
BITMAP
44899400
5C100900
55000720
54000210
54000000
54000000
54000000
54000000
54000000
54000000
54000000
54000000
44000000
ENDCHAR
STARTCHAR s
ENCODING 115
SWIDTH 257 0
DWIDTH 7 0
BBX 7 13 0 0
BITMAP
01899400
08200910
09000000
09000000
06400000
00930000
00086000
00006700
00000820
00000360
34000360
0A100820
02999500
ENDCHAR
STARTCHAR t
ENCODING 116
SWIDTH 207 0
DWIDTH 6 0
BBX 5 17 0 0
BITMAP
004000
009000
009000
009000
79C990
009000
009000
009000
009000
009000
009000
009000
009000
009000
009000
008100
002980
ENDCHAR
STARTCHAR u
ENCODING 117
SWIDTH 307 0
DWIDTH 9 0
BBX 6 13 1 0
BITMAP
800008
900009
900009
900009
900009
900009
900009
900009
900009
900009
80000A
54006C
099968
ENDCHAR
STARTCHAR v
ENCODING 118
SWIDTH 285 0
DWIDTH 8 0
BBX 8 13 0 0
BITMAP
53000035
27000072
09000090
09000090
06300360
02700720
00900900
00900800
00633500
00277200
00099000
00098000
00055000
ENDCHAR
STARTCHAR w
ENCODING 119
SWIDTH 396 0
DWIDTH 11 0
BBX 11 13 0 0
BITMAP
260000000530
180000000720
090000000810
09001A200900
090064800900
090071900900
090065700900
08102D300900
07200D101800
054085803700
045470654500
038900098400
01C10000B200
ENDCHAR
STARTCHAR x
ENCODING 120
SWIDTH 244 0
DWIDTH 7 0
BBX 7 13 0 0
BITMAP
08000800
09102700
04508200
00909000
00865000
002D0000
001C0000
00694000
00919000
03708100
08103600
09000900
54000620
ENDCHAR
STARTCHAR y
ENCODING 121
SWIDTH 285 0
DWIDTH 8 0
BBX 8 18 0 -5
BITMAP
53000035
27000072
09000090
09000090
06300360
02700720
00900900
00900800
00633500
00277200
00099000
00098000
00065000
00071000
00090000
00180000
00730000
69600000
ENDCHAR
STARTCHAR z
ENCODING 122
SWIDTH 233 0
DWIDTH 7 0
BBX 6 13 0 0
BITMAP
19999B
000027
000071
000090
000450
000900
001800
007200
009000
045000
091000
180000
5B9998
ENDCHAR
STARTCHAR braceleft
ENCODING 123
SWIDTH 306 0
DWIDTH 9 0
BBX 9 23 0 -2
BITMAP
0000069940
0000190000
0000270000
0000270000
0000270000
0000270000
0000270000
0000270000
0000260000
0000450000
1998820000
6406D00000
1997820000
0000450000
0000260000
0000270000
0000270000
0000270000
0000270000
0000270000
0000270000
0000190000
0000059940
ENDCHAR
STARTCHAR bar
ENCODING 124
SWIDTH 141 0
DWIDTH 4 0
BBX 2 22 1 -2
BITMAP
44
54
54
54
54
54
54
54
54
54
54
54
54
54
54
54
54
54
54
54
54
44
ENDCHAR
STARTCHAR braceright
ENCODING 125
SWIDTH 306 0
DWIDTH 9 0
BBX 8 23 0 -2
BITMAP
89920000
00180000
00090000
00090000
00090000
00090000
00090000
00090000
00090000
00090000
00094996
0004D10A
00084995
00090000
00090000
00090000
00090000
00090000
00090000
00090000
00090000
00180000
89920000
ENDCHAR
STARTCHAR asciitilde
ENCODING 126
SWIDTH 433 0
DWIDTH 12 0
BBX 10 2 1 6
BITMAP
1899630018
7100269992
ENDCHAR
STARTCHAR uni00A0
ENCODING 160
SWIDTH 240 0
DWIDTH 7 0
BBX 1 1 0 0
BITMAP
00
ENDCHAR
STARTCHAR exclamdown
ENCODING 161
SWIDTH 141 0
DWIDTH 4 0
BBX 2 19 1 -3
BITMAP
44
54
33
00
00
44
54
54
54
54
54
54
54
54
54
54
54
54
44
ENDCHAR
STARTCHAR cent
ENCODING 162
SWIDTH 275 0
DWIDTH 8 0
BBX 6 18 1 -2
BITMAP
000300
001800
001800
018C60
093865
371808
811800
901800
901800
901800
901800
901800
631804
191819
068A92
003A10
001800
001700
ENDCHAR
STARTCHAR sterling
ENCODING 163
SWIDTH 331 0
DWIDTH 9 0
BBX 9 19 0 0
BITMAP
0059997000
0660003800
0900000810
2700000000
3700000000
1800000000
0900000000
0550000000
00A0000000
0046000000
199D999100
0008200000
0005400000
0006300000
0009000000
0029000000
0091000000
0740000000
6D99999950
ENDCHAR
STARTCHAR currency
ENCODING 164
SWIDTH 506 0
DWIDTH 14 0
BBX 12 11 1 3
BITMAP
650000000038
075499996390
00A600005C00
028000000650
072000000090
091000000090
073000000190
019000000830
00A910018B10
093289993291
630000000027
ENDCHAR
STARTCHAR yen
ENCODING 165
SWIDTH 370 0
DWIDTH 10 0
BBX 10 19 0 0
BITMAP
8100000008
3600000018
0900000082
0550000090
0090000640
0073000900
0019004500
0008209000
0002827000
0000991000
0000490000
0000270000
03889B8860
0000270000
03889B8860
0000270000
0000270000
0000270000
0000260000
ENDCHAR
STARTCHAR brokenbar
ENCODING 166
SWIDTH 141 0
DWIDTH 4 0
BBX 2 22 1 -2
BITMAP
44
54
54
54
54
54
54
54
44
00
00
00
22
54
54
54
54
54
54
54
54
44
ENDCHAR
STARTCHAR section
ENCODING 167
SWIDTH 303 0
DWIDTH 8 0
BBX 8 23 0 -3
BITMAP
00488810
07600191
09000027
27000000
18000000
0A200000
02B20000
00182000
00030100
04100040
08000043
0B000065
0B4000B3
04E64AB0
005ED910
0002A500
00000770
00000083
00000018
00000009
45000036
093002A1
00788710
ENDCHAR
STARTCHAR dieresis
ENCODING 168
SWIDTH 241 0
DWIDTH 7 0
BBX 5 3 1 14
BITMAP
440710
540810
440710
ENDCHAR
STARTCHAR copyright
ENCODING 169
SWIDTH 772 0
DWIDTH 22 0
BBX 20 19 1 0
BITMAP
00000048999962000000
00005A61000038920000
00086000000000195000
00930000499400008400
06500003700400000A10
19000009000000000280
54000009000000000090
90000026000000000054
90000045000000000036
90000044000000000027
90000045000000000036
90000026000000000064
54000009000000000090
1A000009000000000280
06500003800200000910
00930000499500008400
00086000000000194000
00004961000038920000
00000038999962000000
ENDCHAR
STARTCHAR ordfeminine
ENCODING 170
SWIDTH 231 0
DWIDTH 6 0
BBX 6 8 0 11
BITMAP
05CC40
0700A0
000090
0005A0
048390
270090
4504B0
1BB798
ENDCHAR
STARTCHAR guillemotleft
ENCODING 171
SWIDTH 403 0
DWIDTH 11 0
BBX 10 11 1 3
BITMAP
0000410041
0003800480
0029003900
01A0029000
1A101A1000
A200A10000
5800660000
0660075000
0075008400
0008400930
0000810091
ENDCHAR
STARTCHAR logicalnot
ENCODING 172
SWIDTH 557 0
DWIDTH 16 0
BBX 14 5 1 4
BITMAP
79999999999995
00000000000027
00000000000027
00000000000027
00000000000015
ENDCHAR
STARTCHAR uni00AD
ENCODING 173
SWIDTH 286 0
DWIDTH 8 0
BBX 6 1 1 7
BITMAP
799997
ENDCHAR
STARTCHAR registered
ENCODING 174
SWIDTH 772 0
DWIDTH 22 0
BBX 20 19 1 0
BITMAP
00000048999962000000
00005A61000038920000
00086000000000195000
00930005998100008400
06500006302900000A10
19000006300900000280
54000006300810000090
90000006300A00000054
90000006305900000036
90000006A9B300000027
90000006300900000036
90000006300810000064
54000006300540000090
1A000006300180000280
06500006300090000910
00930002100030008400
00086000000000194000
00004961000038920000
00000038999962000000
ENDCHAR
STARTCHAR macron
ENCODING 175
SWIDTH 266 0
DWIDTH 7 0
BBX 5 1 1 16
BITMAP
288860
ENDCHAR
STARTCHAR degree
ENCODING 176
SWIDTH 350 0
DWIDTH 10 0
BBX 8 7 1 12
BITMAP
01799600
1A300490
64000073
81000046
64000073
1A300590
01799600
ENDCHAR
STARTCHAR plusminus
ENCODING 177
SWIDTH 577 0
DWIDTH 16 0
BBX 14 13 1 0
BITMAP
00000035000000
00000036000000
00000036000000
00000036000000
00000036000000
599999AB999996
00000036000000
00000036000000
00000036000000
00000036000000
00000024000000
00000000000000
59999999999996
ENDCHAR
STARTCHAR uni00B2
ENCODING 178
SWIDTH 207 0
DWIDTH 6 0
BBX 5 8 0 11
BITMAP
04CC40
090090
000080
000440
002600
017000
070000
1DBBA0
ENDCHAR
STARTCHAR uni00B3
ENCODING 179
SWIDTH 214 0
DWIDTH 6 0
BBX 5 8 0 11
BITMAP
05CB20
050270
000550
008D10
000390
000090
140190
08BB20
ENDCHAR
STARTCHAR acute
ENCODING 180
SWIDTH 201 0
DWIDTH 6 0
BBX 3 4 1 15
BITMAP
0020
0190
0820
2700
ENDCHAR
STARTCHAR uni00B5
ENCODING 181
SWIDTH 335 0
DWIDTH 9 0
BBX 8 18 1 -5
BITMAP
44000630
54000630
54000630
54000630
54000630
54000630
54000630
54000630
54000630
54000630
54000630
57001B30
589994A6
54000000
54000000
54000000
54000000
44000000
ENDCHAR
STARTCHAR paragraph
ENCODING 182
SWIDTH 471 0
DWIDTH 13 0
BBX 11 19 1 0
BITMAP
003BEFFA0170
04FFFFFB0180
0DFFFFFB0180
2FFFFFFB0180
4FFFFFFB0180
4FFFFFFB0180
1FFFFFFB0180
0AFFFFFB0180
01CFFFFB0180
00059AAA0180
000000090180
000000090180
000000090180
000000090180
000000090180
000000090180
000000090180
000000090180
000000080170
ENDCHAR
STARTCHAR periodcentered
ENCODING 183
SWIDTH 181 0
DWIDTH 5 0
BBX 1 3 2 7
BITMAP
60
90
80
ENDCHAR
STARTCHAR cedilla
ENCODING 184
SWIDTH 232 0
DWIDTH 7 0
BBX 4 5 1 -5
BITMAP
0440
0B93
0209
1209
1892
ENDCHAR
STARTCHAR uni00B9
ENCODING 185
SWIDTH 176 0
DWIDTH 5 0
BBX 5 8 0 11
BITMAP
19B000
019000
009000
009000
009000
009000
009000
3BDB50
ENDCHAR
STARTCHAR ordmasculine
ENCODING 186
SWIDTH 201 0
DWIDTH 6 0
BBX 5 8 0 11
BITMAP
04CB10
0A0470
270090
450090
450090
270090
0A0470
04CB10
ENDCHAR
STARTCHAR guillemotright
ENCODING 187
SWIDTH 403 0
DWIDTH 11 0
BBX 10 11 1 2
BITMAP
8200910000
1A101A1000
01A1029000
0029003900
0003900480
0000A200A1
0008400830
0065007400
0560065000
4700560000
5000500000
ENDCHAR
STARTCHAR onequarter
ENCODING 188
SWIDTH 527 0
DWIDTH 15 0
BBX 13 19 1 0
BITMAP
39900000001700
10900000008200
00900000018000
00900000082000
00900000180000
00900000820000
00900001800000
6BDB2008200000
00000018000000
00000082000000
00000280000000
00000810026000
00002800081000
00008100278000
00028000819000
00081002709000
0028000699C920
00810000009000
01700000008000
ENDCHAR
STARTCHAR onehalf
ENCODING 189
SWIDTH 540 0
DWIDTH 15 0
BBX 13 19 1 0
BITMAP
39900000001700
10900000008200
00900000018000
00900000082000
00900000180000
00900000820000
00900001800000
6BDB2008200000
00000018000000
00000082000000
00000280000000
0000081007CB20
00002800180370
00008100000260
00028000000710
00081000004400
00280000035000
00810000070000
017000004CBB70
ENDCHAR
STARTCHAR threequarters
ENCODING 190
SWIDTH 517 0
DWIDTH 14 0
BBX 14 19 0 0
BITMAP
05CB2000000170
05027000000820
00055000001800
008D1000008200
00039000018000
00009000082000
14019000180000
08BB2000820000
00000001800000
00000008200000
00000028000000
00000081000800
00000280005400
00000810009620
00002800054630
00008100090630
000280002A9BA5
00081000000630
00170000000630
ENDCHAR
STARTCHAR questiondown
ENCODING 191
SWIDTH 300 0
DWIDTH 8 0
BBX 7 19 1 -3
BITMAP
00081000
00081000
00060000
00000000
00000000
00071000
00037000
00009000
00028000
00081000
00470000
01A00000
07300000
19000000
55000000
63000000
54000040
1A000830
03989500
ENDCHAR
STARTCHAR Agrave
ENCODING 192
SWIDTH 414 0
DWIDTH 12 0
BBX 12 23 0 0
BITMAP
000090000000
000047000000
000007000000
000000000000
000008200000
00000C600000
000028900000
000064900000
0000A0640000
0000A0280000
0004600A0000
000820081000
000A00045000
001900019000
00550000A000
00999999C300
00A000003700
027000000A00
063000000900
090000000540
090000000180
460000000090
710000000071
ENDCHAR
STARTCHAR Aacute
ENCODING 193
SWIDTH 414 0
DWIDTH 12 0
BBX 12 23 0 0
BITMAP
000000270000
000000910000
000002500000
000000000000
000008200000
00000C600000
000028900000
000064900000
0000A0640000
0000A0280000
0004600A0000
000820081000
000A00045000
001900019000
00550000A000
00999999C300
00A000003700
027000000A00
063000000900
090000000540
090000000180
460000000090
710000000071
ENDCHAR
STARTCHAR Acircumflex
ENCODING 194
SWIDTH 414 0
DWIDTH 12 0
BBX 12 24 0 0
BITMAP
000001000000
00001A700000
000092740000
000140050000
000000000000
000008200000
00000C600000
000028900000
000064900000
0000A0640000
0000A0280000
0004600A0000
000820081000
000A00045000
001900019000
00550000A000
00999999C300
00A000003700
027000000A00
063000000900
090000000540
090000000180
460000000090
710000000071
ENDCHAR
STARTCHAR Atilde
ENCODING 195
SWIDTH 414 0
DWIDTH 12 0
BBX 12 22 0 0
BITMAP
000297052000
000613980000
000000000000
000008200000
00000C600000
000028900000
000064900000
0000A0640000
0000A0280000
0004600A0000
000820081000
000A00045000
001900019000
00550000A000
00999999C300
00A000003700
027000000A00
063000000900
090000000540
090000000180
460000000090
710000000071
ENDCHAR
STARTCHAR Adieresis
ENCODING 196
SWIDTH 414 0
DWIDTH 12 0
BBX 12 23 0 0
BITMAP
000060230000
000090450000
000080350000
000000000000
000008200000
00000C600000
000028900000
000064900000
0000A0640000
0000A0280000
0004600A0000
000820081000
000A00045000
001900019000
00550000A000
00999999C300
00A000003700
027000000A00
063000000900
090000000540
090000000180
460000000090
710000000071
ENDCHAR
STARTCHAR Aring
ENCODING 197
SWIDTH 414 0
DWIDTH 12 0
BBX 12 23 0 0
BITMAP
000038800000
000080440000
000038800000
000000000000
000008200000
00000C600000
000028900000
000064900000
0000A0640000
0000A0280000
0004600A0000
000820081000
000A00045000
001900019000
00550000A000
00999999C300
00A000003700
027000000A00
063000000900
090000000540
090000000180
460000000090
710000000071
ENDCHAR
STARTCHAR AE
ENCODING 198
SWIDTH 545 0
DWIDTH 15 0
BBX 15 19 0 0
BITMAP
00000000C9999910
00000004C0000000
0000000990000000
0000002890000000
0000008290000000
0000019090000000
0000064090000000
00000A0090000000
00004700A9999700
0000910090000000
0002900090000000
0008A999B0000000
000A000090000000
0055000090000000
00A0000090000000
0370000090000000
0910000090000000
1800000090000000
62000000A9999910
ENDCHAR
STARTCHAR Ccedilla
ENCODING 199
SWIDTH 366 0
DWIDTH 10 0
BBX 9 24 1 -5
BITMAP
0018999600
00A2000410
0830000000
1900000000
4500000000
8100000000
9000000000
9000000000
9000000000
9000000000
9000000000
9000000000
9000000000
8100000000
4500000000
1900000000
0830000000
00A2000410
0018999600
0000350000
0000A93000
0000209000
0001209000
0000893000
ENDCHAR
STARTCHAR Egrave
ENCODING 200
SWIDTH 309 0
DWIDTH 9 0
BBX 7 23 1 0
BITMAP
00800000
00740000
00070000
00000000
4A999940
54000000
54000000
54000000
54000000
54000000
54000000
54000000
5A999920
54000000
54000000
54000000
54000000
54000000
54000000
54000000
54000000
54000000
4A999940
ENDCHAR
STARTCHAR Eacute
ENCODING 201
SWIDTH 309 0
DWIDTH 9 0
BBX 7 23 1 0
BITMAP
00004500
0000A000
00043000
00000000
4A999940
54000000
54000000
54000000
54000000
54000000
54000000
54000000
5A999920
54000000
54000000
54000000
54000000
54000000
54000000
54000000
54000000
54000000
4A999940
ENDCHAR
STARTCHAR Ecircumflex
ENCODING 202
SWIDTH 309 0
DWIDTH 9 0
BBX 7 24 1 0
BITMAP
00010000
002B5000
00A19200
02301400
00000000
4A999940
54000000
54000000
54000000
54000000
54000000
54000000
54000000
5A999920
54000000
54000000
54000000
54000000
54000000
54000000
54000000
54000000
54000000
4A999940
ENDCHAR
STARTCHAR Edieresis
ENCODING 203
SWIDTH 309 0
DWIDTH 9 0
BBX 7 23 1 0
BITMAP
00604100
00906200
00806200
00000000
4A999940
54000000
54000000
54000000
54000000
54000000
54000000
54000000
5A999920
54000000
54000000
54000000
54000000
54000000
54000000
54000000
54000000
54000000
4A999940
ENDCHAR
STARTCHAR Igrave
ENCODING 204
SWIDTH 141 0
DWIDTH 4 0
BBX 3 23 0 0
BITMAP
8100
2900
0610
0000
0440
0540
0540
0540
0540
0540
0540
0540
0540
0540
0540
0540
0540
0540
0540
0540
0540
0540
0440
ENDCHAR
STARTCHAR Iacute
ENCODING 205
SWIDTH 141 0
DWIDTH 4 0
BBX 3 23 1 0
BITMAP
0080
0730
0700
0000
4400
5400
5400
5400
5400
5400
5400
5400
5400
5400
5400
5400
5400
5400
5400
5400
5400
5400
4400
ENDCHAR
STARTCHAR Icircumflex
ENCODING 206
SWIDTH 141 0
DWIDTH 4 0
BBX 4 24 0 0
BITMAP
0110
0990
7446
5005
0000
0440
0540
0540
0540
0540
0540
0540
0540
0540
0540
0540
0540
0540
0540
0540
0540
0540
0540
0440
ENDCHAR
STARTCHAR Idieresis
ENCODING 207
SWIDTH 141 0
DWIDTH 4 0
BBX 4 23 0 0
BITMAP
6005
9018
8018
0000
0440
0540
0540
0540
0540
0540
0540
0540
0540
0540
0540
0540
0540
0540
0540
0540
0540
0540
0440
ENDCHAR
STARTCHAR Eth
ENCODING 208
SWIDTH 396 0
DWIDTH 11 0
BBX 10 19 0 0
BITMAP
04A9999300
0540000930
05400001A0
0540000073
0540000027
0540000009
0540000009
0540000009
0540000009
0540000009
6BA9940009
0540000009
0540000009
0540000009
0540000037
0540000073
05400001A0
0540000930
04A9999300
ENDCHAR
STARTCHAR Ntilde
ENCODING 209
SWIDTH 422 0
DWIDTH 12 0
BBX 10 22 1 0
BITMAP
0029814300
0051288000
0000000000
4500000062
5C00000072
5B30000072
5590000072
5491000072
5437000072
540A000072
5405500072
5400A00072
5400730072
5400190072
5400081072
5400027072
5400009072
5400004572
5400000972
54000006A2
54000001E2
4400000082
ENDCHAR
STARTCHAR Ograve
ENCODING 210
SWIDTH 446 0
DWIDTH 12 0
BBX 11 23 1 0
BITMAP
000540000000
0000A0000000
000034000000
000000000000
001899940000
01A200075000
083000009100
190000003700
450000000900
810000000910
900000000730
900000000540
900000000450
900000000450
900000000450
900000000540
900000000730
810000000910
550000000900
190000003700
083000009100
01A200075000
001899940000
ENDCHAR
STARTCHAR Oacute
ENCODING 211
SWIDTH 446 0
DWIDTH 12 0
BBX 11 23 1 0
BITMAP
000000800000
000004600000
000007000000
000000000000
001899940000
01A200075000
083000009100
190000003700
450000000900
810000000910
900000000730
900000000540
900000000450
900000000450
900000000450
900000000540
900000000730
810000000910
550000000900
190000003700
083000009100
01A200075000
001899940000
ENDCHAR
STARTCHAR Ocircumflex
ENCODING 212
SWIDTH 446 0
DWIDTH 12 0
BBX 11 24 1 0
BITMAP
000001000000
00007B100000
000382900000
000400410000
000000000000
001899940000
01A200075000
083000009100
190000003700
450000000900
810000000910
900000000730
900000000540
900000000450
900000000450
900000000450
900000000540
900000000730
810000000910
550000000900
190000003700
083000009100
01A200075000
001899940000
ENDCHAR
STARTCHAR Otilde
ENCODING 213
SWIDTH 446 0
DWIDTH 12 0
BBX 11 22 1 0
BITMAP
000893060000
002507930000
000000000000
001899940000
01A200075000
083000009100
190000003700
450000000900
810000000910
900000000730
900000000540
900000000450
900000000450
900000000450
900000000540
900000000730
810000000910
550000000900
190000003700
083000009100
01A200075000
001899940000
ENDCHAR
STARTCHAR Odieresis
ENCODING 214
SWIDTH 446 0
DWIDTH 12 0
BBX 11 23 1 0
BITMAP
000330600000
000540900000
000440800000
000000000000
001899940000
01A200075000
083000009100
190000003700
450000000900
810000000910
900000000730
900000000540
900000000450
900000000450
900000000450
900000000540
900000000730
810000000910
550000000900
190000003700
083000009100
01A200075000
001899940000
ENDCHAR
STARTCHAR multiply
ENCODING 215
SWIDTH 445 0
DWIDTH 12 0
BBX 10 10 1 2
BITMAP
6100000005
1A10000093
01A1000930
001A109300
0001A93000
00009A1000
000931A100
0093001A10
09300001A1
5300000018
ENDCHAR
STARTCHAR Oslash
ENCODING 216
SWIDTH 446 0
DWIDTH 12 0
BBX 11 19 1 0
BITMAP
001899A30800
01A200088400
08300000D100
19000004A600
450000090A00
810000370900
900000910720
900002800540
900008100450
900018000450
900072000450
900190000540
900730000730
810900000910
456400000A00
1A9000003700
086000009100
0AA200075000
361899A40000
ENDCHAR
STARTCHAR Ugrave
ENCODING 217
SWIDTH 412 0
DWIDTH 12 0
BBX 10 23 1 0
BITMAP
0009000000
0004600000
0000700000
0000000000
8000000062
9000000072
9000000072
9000000072
9000000072
9000000072
9000000072
9000000072
9000000072
9000000072
9000000072
9000000072
9000000072
9000000072
9000000072
8200000091
46000000A0
0A30000940
0089999400
ENDCHAR
STARTCHAR Uacute
ENCODING 218
SWIDTH 412 0
DWIDTH 12 0
BBX 10 23 1 0
BITMAP
0000027000
0000091000
0000250000
0000000000
8000000062
9000000072
9000000072
9000000072
9000000072
9000000072
9000000072
9000000072
9000000072
9000000072
9000000072
9000000072
9000000072
9000000072
9000000072
8200000091
46000000A0
0A30000940
0089999400
ENDCHAR
STARTCHAR Ucircumflex
ENCODING 219
SWIDTH 412 0
DWIDTH 12 0
BBX 10 24 1 0
BITMAP
0000100000
0001B70000
0009273000
0014005000
0000000000
8000000062
9000000072
9000000072
9000000072
9000000072
9000000072
9000000072
9000000072
9000000072
9000000072
9000000072
9000000072
9000000072
9000000072
9000000072
8200000091
46000000A0
0A30000940
0089999400
ENDCHAR
STARTCHAR Udieresis
ENCODING 220
SWIDTH 412 0
DWIDTH 12 0
BBX 10 23 1 0
BITMAP
0006033000
0009045000
0008044000
0000000000
8000000062
9000000072
9000000072
9000000072
9000000072
9000000072
9000000072
9000000072
9000000072
9000000072
9000000072
9000000072
9000000072
9000000072
9000000072
8200000091
46000000A0
0A30000940
0089999400
ENDCHAR
STARTCHAR Yacute
ENCODING 221
SWIDTH 370 0
DWIDTH 10 0
BBX 10 23 0 0
BITMAP
0000009000
0000056000
0000070000
0000000000
8100000008
3700000028
0900000082
0450000190
0090000730
0064000900
0009005400
0007309000
0001946000
00008A0000
0000380000
0000270000
0000270000
0000270000
0000270000
0000270000
0000270000
0000270000
0000260000
ENDCHAR
STARTCHAR Thorn
ENCODING 222
SWIDTH 341 0
DWIDTH 10 0
BBX 8 19 1 0
BITMAP
44000000
54000000
54000000
54000000
5A999700
54000390
54000063
54000018
54000009
54000009
54000027
54000082
54001860
5A999300
54000000
54000000
54000000
54000000
44000000
ENDCHAR
STARTCHAR germandbls
ENCODING 223
SWIDTH 327 0
DWIDTH 9 0
BBX 7 19 1 0
BITMAP
03A99100
0A102900
27000900
45000820
54000720
54000820
54000A00
54698A00
54A08900
54696820
54000270
54000090
54000090
54000090
54000090
54000270
54000630
54002900
45899100
ENDCHAR
STARTCHAR agrave
ENCODING 224
SWIDTH 315 0
DWIDTH 9 0
BBX 9 19 0 0
BITMAP
0011000000
0028000000
0008200000
0001900000
0000000000
0000000000
0059990000
0470046000
0200009000
0000009000
0000009000
0000039000
0005969000
01A5009000
0920009000
1900009000
2700009000
0A00199000
0499819910
ENDCHAR
STARTCHAR aacute
ENCODING 225
SWIDTH 315 0
DWIDTH 9 0
BBX 9 19 0 0
BITMAP
0000020000
00000A0000
0000740000
0001900000
0000000000
0000000000
0059990000
0470046000
0200009000
0000009000
0000009000
0000039000
0005969000
01A5009000
0920009000
1900009000
2700009000
0A00199000
0499819910
ENDCHAR
STARTCHAR acircumflex
ENCODING 226
SWIDTH 315 0
DWIDTH 9 0
BBX 9 18 0 0
BITMAP
0003B00000
0019380000
0082074000
0020002000
0000000000
0059990000
0470046000
0200009000
0000009000
0000009000
0000039000
0005969000
01A5009000
0920009000
1900009000
2700009000
0A00199000
0499819910
ENDCHAR
STARTCHAR atilde
ENCODING 227
SWIDTH 315 0
DWIDTH 9 0
BBX 9 17 0 0
BITMAP
0089307000
0250794000
0000000000
0000000000
0059990000
0470046000
0200009000
0000009000
0000009000
0000039000
0005969000
01A5009000
0920009000
1900009000
2700009000
0A00199000
0499819910
ENDCHAR
STARTCHAR adieresis
ENCODING 228
SWIDTH 315 0
DWIDTH 9 0
BBX 9 17 0 0
BITMAP
0063080000
0063090000
0063080000
0000000000
0059990000
0470046000
0200009000
0000009000
0000009000
0000039000
0005969000
01A5009000
0920009000
1900009000
2700009000
0A00199000
0499819910
ENDCHAR
STARTCHAR aring
ENCODING 229
SWIDTH 315 0
DWIDTH 9 0
BBX 9 18 0 0
BITMAP
0007840000
0035090000
0035090000
0007840000
0000000000
0059990000
0470046000
0200009000
0000009000
0000009000
0000039000
0005969000
01A5009000
0920009000
1900009000
2700009000
0A00199000
0499819910
ENDCHAR
STARTCHAR ae
ENCODING 230
SWIDTH 450 0
DWIDTH 13 0
BBX 12 13 0 0
BITMAP
007999029950
074004580081
010000B40036
000000E00009
000000B00009
000269D99998
019841900000
092000900000
090000A00000
270000900000
180000B20017
090019590083
02999205A960
ENDCHAR
STARTCHAR ccedilla
ENCODING 231
SWIDTH 275 0
DWIDTH 8 0
BBX 6 18 1 -5
BITMAP
029980
0A1046
460008
810000
900000
900000
900000
900000
900000
810000
460008
0A1046
029980
003500
00A940
002090
012090
008930
ENDCHAR
STARTCHAR egrave
ENCODING 232
SWIDTH 285 0
DWIDTH 8 0
BBX 7 19 1 0
BITMAP
01000000
03700000
00820000
00190000
00000000
00000000
02997000
0A105500
46000A00
81000900
A0000810
B9999A10
90000000
90000000
90000000
81000000
36000800
09103800
02999000
ENDCHAR
STARTCHAR eacute
ENCODING 233
SWIDTH 285 0
DWIDTH 8 0
BBX 7 19 1 0
BITMAP
00002000
0000A000
00073000
00180000
00000000
00000000
02997000
0A105500
46000A00
81000900
A0000810
B9999A10
90000000
90000000
90000000
81000000
36000800
09103800
02999000
ENDCHAR
STARTCHAR ecircumflex
ENCODING 234
SWIDTH 285 0
DWIDTH 8 0
BBX 7 18 1 0
BITMAP
004A0000
01937000
09207300
02000200
00000000
02997000
0A105500
46000A00
81000900
A0000810
B9999A10
90000000
90000000
90000000
81000000
36000800
09103800
02999000
ENDCHAR
STARTCHAR edieresis
ENCODING 235
SWIDTH 285 0
DWIDTH 8 0
BBX 7 17 1 0
BITMAP
06208000
06209000
06208000
00000000
02997000
0A105500
46000A00
81000900
A0000810
B9999A10
90000000
90000000
90000000
81000000
36000800
09103800
02999000
ENDCHAR
STARTCHAR igrave
ENCODING 236
SWIDTH 141 0
DWIDTH 4 0
BBX 3 19 0 0
BITMAP
2000
7300
0A00
0460
0000
0000
0440
0540
0540
0540
0540
0540
0540
0540
0540
0540
0540
0540
0440
ENDCHAR
STARTCHAR iacute
ENCODING 237
SWIDTH 141 0
DWIDTH 4 0
BBX 3 19 1 0
BITMAP
0020
0370
0A10
5500
0000
0000
4400
5400
5400
5400
5400
5400
5400
5400
5400
5400
5400
5400
4400
ENDCHAR
STARTCHAR icircumflex
ENCODING 238
SWIDTH 141 0
DWIDTH 4 0
BBX 6 18 -1 0
BITMAP
007700
047730
1900A1
110011
000000
004400
005400
005400
005400
005400
005400
005400
005400
005400
005400
005400
005400
004400
ENDCHAR
STARTCHAR idieresis
ENCODING 239
SWIDTH 141 0
DWIDTH 4 0
BBX 4 17 0 0
BITMAP
8008
9009
8008
0000
0440
0540
0540
0540
0540
0540
0540
0540
0540
0540
0540
0540
0440
ENDCHAR
STARTCHAR eth
ENCODING 240
SWIDTH 319 0
DWIDTH 9 0
BBX 7 19 1 0
BITMAP
09200000
01A20000
00194830
0388A000
02008200
00001800
01998A00
0A101B40
46000270
81000090
90000090
90000090
90000090
90000090
90000190
81000450
36000910
0A103800
01998000
ENDCHAR
STARTCHAR ntilde
ENCODING 241
SWIDTH 307 0
DWIDTH 9 0
BBX 7 17 1 0
BITMAP
08930700
25079400
00000000
00000000
44899500
5B100900
55000720
54000630
54000630
54000630
54000630
54000630
54000630
54000630
54000630
54000630
44000630
ENDCHAR
STARTCHAR ograve
ENCODING 242
SWIDTH 309 0
DWIDTH 9 0
BBX 7 19 1 0
BITMAP
01100000
02800000
00730000
00190000
00000000
00000000
02997000
0A104600
46000900
81000630
90000360
90000270
90000180
90000270
90000460
81000730
46000900
0A104600
02997000
ENDCHAR
STARTCHAR oacute
ENCODING 243
SWIDTH 309 0
DWIDTH 9 0
BBX 7 19 1 0
BITMAP
00001000
0000A000
00064000
00190000
00000000
00000000
02997000
0A104600
46000900
81000630
90000360
90000270
90000180
90000270
90000460
81000730
46000900
0A104600
02997000
ENDCHAR
STARTCHAR ocircumflex
ENCODING 244
SWIDTH 309 0
DWIDTH 9 0
BBX 7 18 1 0
BITMAP
003B0000
01A38000
08207400
02000200
00000000
02997000
0A104600
46000900
81000630
90000360
90000270
90000180
90000270
90000460
81000730
46000900
0A104600
02997000
ENDCHAR
STARTCHAR otilde
ENCODING 245
SWIDTH 309 0
DWIDTH 9 0
BBX 7 17 1 0
BITMAP
08930700
25069400
00000000
00000000
02997000
0A104600
46000900
81000630
90000360
90000270
90000180
90000270
90000460
81000730
46000900
0A104600
02997000
ENDCHAR
STARTCHAR odieresis
ENCODING 246
SWIDTH 309 0
DWIDTH 9 0
BBX 7 17 1 0
BITMAP
05308000
05308000
05308000
00000000
02997000
0A104600
46000900
81000630
90000360
90000270
90000180
90000270
90000460
81000730
46000900
0A104600
02997000
ENDCHAR
STARTCHAR divide
ENCODING 247
SWIDTH 577 0
DWIDTH 16 0
BBX 14 13 1 0
BITMAP
00000035000000
00000036000000
00000024000000
00000000000000
00000000000000
00000000000000
48888888888886
00000000000000
00000000000000
00000000000000
00000024000000
00000036000000
00000035000000
ENDCHAR
STARTCHAR oslash
ENCODING 248
SWIDTH 309 0
DWIDTH 9 0
BBX 7 13 1 0
BITMAP
02997530
0A105C00
46003C00
81009820
90028450
90082270
90190180
90630270
90900360
86500630
4C000900
3C104600
73998000
ENDCHAR
STARTCHAR ugrave
ENCODING 249
SWIDTH 307 0
DWIDTH 9 0
BBX 6 19 1 0
BITMAP
011000
028000
008200
001900
000000
000000
800008
900009
900009
900009
900009
900009
900009
900009
900009
900009
80000A
54006C
099968
ENDCHAR
STARTCHAR uacute
ENCODING 250
SWIDTH 307 0
DWIDTH 9 0
BBX 6 19 1 0
BITMAP
000020
0000A0
000740
001900
000000
000000
800008
900009
900009
900009
900009
900009
900009
900009
900009
900009
80000A
54006C
099968
ENDCHAR
STARTCHAR ucircumflex
ENCODING 251
SWIDTH 307 0
DWIDTH 9 0
BBX 6 18 1 0
BITMAP
003B00
019380
082074
020002
000000
800008
900009
900009
900009
900009
900009
900009
900009
900009
900009
80000A
54006C
099968
ENDCHAR
STARTCHAR udieresis
ENCODING 252
SWIDTH 307 0
DWIDTH 9 0
BBX 6 17 1 0
BITMAP
063080
063090
063080
000000
800008
900009
900009
900009
900009
900009
900009
900009
900009
900009
80000A
54006C
099968
ENDCHAR
STARTCHAR yacute
ENCODING 253
SWIDTH 285 0
DWIDTH 8 0
BBX 8 24 0 -5
BITMAP
00000200
00003800
0000A100
00055000
00000000
00000000
53000035
27000072
09000090
09000090
06300360
02700720
00900900
00900800
00633500
00277200
00099000
00098000
00065000
00071000
00090000
00180000
00730000
69600000
ENDCHAR
STARTCHAR thorn
ENCODING 254
SWIDTH 299 0
DWIDTH 8 0
BBX 8 24 0 -5
BITMAP
04400000
04400000
04400000
04400000
04400000
04400000
06B99700
6A400550
04400090
04400090
04400072
04400063
04400064
04400063
04400072
04400090
04400090
04A00550
04799700
04400000
04400000
04400000
04400000
04400000
ENDCHAR
STARTCHAR ydieresis
ENCODING 255
SWIDTH 285 0
DWIDTH 8 0
BBX 8 22 0 -5
BITMAP
00800800
00900900
00800800
00000000
53000035
27000072
09000090
09000090
06300360
02700720
00900900
00900800
00633500
00277200
00099000
00098000
00065000
00071000
00090000
00180000
00730000
69600000
ENDCHAR
STARTCHAR dotlessi
ENCODING 305
SWIDTH 141 0
DWIDTH 4 0
BBX 2 13 1 0
BITMAP
44
54
54
54
54
54
54
54
54
54
54
54
44
ENDCHAR
STARTCHAR OE
ENCODING 338
SWIDTH 505 0
DWIDTH 14 0
BBX 12 19 1 0
BITMAP
001899C99998
01A200900000
083000900000
190000900000
550000900000
810000900000
900000900000
900000900000
900000B99996
900000900000
900000900000
900000900000
900000900000
820000900000
450000900000
190000900000
083000900000
00A200900000
001899C99998
ENDCHAR
STARTCHAR oe
ENCODING 339
SWIDTH 492 0
DWIDTH 14 0
BBX 12 13 1 0
BITMAP
029970039950
0A1045090082
460008630028
810006A00009
900003B00009
900002C99999
900001800000
900002900000
900004A00000
810006A00000
460009630008
0A1045090055
02997003A970
ENDCHAR
STARTCHAR Wcircumflex
ENCODING 372
SWIDTH 534 0
DWIDTH 15 0
BBX 13 24 1 0
BITMAP
00000010000000
000003C3000000
00001A0A100000
00003102300000
00000000000000
80000000000080
90000000000090
90000000000180
81000000000270
72000000000360
63000000000450
540004A3000540
45000918000630
26000909000720
17000818000810
08000665000900
090002D1000900
090000C0000900
09000776000900
09002809100900
09009101900900
09083000470800
08750000067700
07600000007600
ENDCHAR
STARTCHAR wcircumflex
ENCODING 373
SWIDTH 396 0
DWIDTH 11 0
BBX 11 18 0 0
BITMAP
00001B200000
000092900000
000650470000
000200020000
000000000000
260000000530
180000000720
090000000810
09001A200900
090064800900
090071900900
090065700900
08102D300900
07200D101800
054085803700
045470654500
038900098400
01C10000B200
ENDCHAR
STARTCHAR Ycircumflex
ENCODING 374
SWIDTH 370 0
DWIDTH 10 0
BBX 10 24 0 0
BITMAP
0000010000
00007A1000
0004729000
0005004100
0000000000
8100000008
3700000028
0900000082
0450000190
0090000730
0064000900
0009005400
0007309000
0001946000
00008A0000
0000380000
0000270000
0000270000
0000270000
0000270000
0000270000
0000270000
0000270000
0000260000
ENDCHAR
STARTCHAR ycircumflex
ENCODING 375
SWIDTH 285 0
DWIDTH 8 0
BBX 8 23 0 -5
BITMAP
00077000
00377300
01A00A10
01100110
00000000
53000035
27000072
09000090
09000090
06300360
02700720
00900900
00900800
00633500
00277200
00099000
00098000
00065000
00071000
00090000
00180000
00730000
69600000
ENDCHAR
STARTCHAR Ydieresis
ENCODING 376
SWIDTH 370 0
DWIDTH 10 0
BBX 10 23 0 0
BITMAP
0004206000
0006309000
0005308000
0000000000
8100000008
3700000028
0900000082
0450000190
0090000730
0064000900
0009005400
0007309000
0001946000
00008A0000
0000380000
0000270000
0000270000
0000270000
0000270000
0000270000
0000270000
0000270000
0000260000
ENDCHAR
STARTCHAR uni0237
ENCODING 567
SWIDTH 141 0
DWIDTH 4 0
BBX 6 18 -3 -5
BITMAP
000044
000054
000054
000054
000054
000054
000054
000054
000054
000054
000054
000054
000054
000054
000063
000091
000480
199700
ENDCHAR
STARTCHAR circumflex
ENCODING 710
SWIDTH 280 0
DWIDTH 8 0
BBX 5 4 1 14
BITMAP
008600
056830
1900A0
110020
ENDCHAR
STARTCHAR ring
ENCODING 730
SWIDTH 238 0
DWIDTH 7 0
BBX 4 4 1 14
BITMAP
0784
3509
3509
0784
ENDCHAR
STARTCHAR tilde
ENCODING 732
SWIDTH 301 0
DWIDTH 8 0
BBX 6 2 1 15
BITMAP
089307
340793
ENDCHAR
STARTCHAR gravecomb
ENCODING 768
SWIDTH 0 0
DWIDTH 0 0
BBX 3 4 1 15
BITMAP
1100
2900
0730
0090
ENDCHAR
STARTCHAR acutecomb
ENCODING 769
SWIDTH 0 0
DWIDTH 0 0
BBX 3 4 1 15
BITMAP
0020
0190
0820
2700
ENDCHAR
STARTCHAR uni0302
ENCODING 770
SWIDTH 0 0
DWIDTH 0 0
BBX 5 4 1 14
BITMAP
008600
056830
1900A0
110020
ENDCHAR
STARTCHAR tildecomb
ENCODING 771
SWIDTH 0 0
DWIDTH 0 0
BBX 6 2 1 15
BITMAP
089307
340793
ENDCHAR
STARTCHAR uni0307
ENCODING 775
SWIDTH 0 0
DWIDTH 0 0
BBX 2 3 1 14
BITMAP
44
54
44
ENDCHAR
STARTCHAR uni0308
ENCODING 776
SWIDTH 0 0
DWIDTH 0 0
BBX 5 3 1 14
BITMAP
440710
540810
440710
ENDCHAR
STARTCHAR uni030A
ENCODING 778
SWIDTH 0 0
DWIDTH 0 0
BBX 4 4 1 14
BITMAP
0784
3509
3509
0784
ENDCHAR
STARTCHAR uni0327
ENCODING 807
SWIDTH 0 0
DWIDTH 0 0
BBX 4 5 1 -5
BITMAP
0440
0B93
0209
1209
1892
ENDCHAR
STARTCHAR Wgrave
ENCODING 7808
SWIDTH 534 0
DWIDTH 15 0
BBX 13 23 1 0
BITMAP
00002700000000
00000820000000
00000160000000
00000000000000
80000000000080
90000000000090
90000000000180
81000000000270
72000000000360
63000000000450
540004A3000540
45000918000630
26000909000720
17000818000810
08000665000900
090002D1000900
090000C0000900
09000776000900
09002809100900
09009101900900
09083000470800
08750000067700
07600000007600
ENDCHAR
STARTCHAR wgrave
ENCODING 7809
SWIDTH 396 0
DWIDTH 11 0
BBX 11 19 0 0
BITMAP
000010000000
0000A0000000
000056000000
000009000000
000000000000
000000000000
260000000530
180000000720
090000000810
09001A200900
090064800900
090071900900
090065700900
08102D300900
07200D101800
054085803700
045470654500
038900098400
01C10000B200
ENDCHAR
STARTCHAR Wacute
ENCODING 7810
SWIDTH 534 0
DWIDTH 15 0
BBX 13 23 1 0
BITMAP
00000006300000
00000019000000
00000052000000
00000000000000
80000000000080
90000000000090
90000000000180
81000000000270
72000000000360
63000000000450
540004A3000540
45000918000630
26000909000720
17000818000810
08000665000900
090002D1000900
090000C0000900
09000776000900
09002809100900
09009101900900
09083000470800
08750000067700
07600000007600
ENDCHAR
STARTCHAR wacute
ENCODING 7811
SWIDTH 396 0
DWIDTH 11 0
BBX 11 19 0 0
BITMAP
000000110000
000000820000
000003700000
000009000000
000000000000
000000000000
260000000530
180000000720
090000000810
09001A200900
090064800900
090071900900
090065700900
08102D300900
07200D101800
054085803700
045470654500
038900098400
01C10000B200
ENDCHAR
STARTCHAR Wdieresis
ENCODING 7812
SWIDTH 534 0
DWIDTH 15 0
BBX 13 23 1 0
BITMAP
00001506000000
00001808000000
00001708000000
00000000000000
80000000000080
90000000000090
90000000000180
81000000000270
72000000000360
63000000000450
540004A3000540
45000918000630
26000909000720
17000818000810
08000665000900
090002D1000900
090000C0000900
09000776000900
09002809100900
09009101900900
09083000470800
08750000067700
07600000007600
ENDCHAR
STARTCHAR wdieresis
ENCODING 7813
SWIDTH 396 0
DWIDTH 11 0
BBX 11 17 0 0
BITMAP
000260530000
000260530000
000260530000
000000000000
260000000530
180000000720
090000000810
09001A200900
090064800900
090071900900
090065700900
08102D300900
07200D101800
054085803700
045470654500
038900098400
01C10000B200
ENDCHAR
STARTCHAR uni1E9E
ENCODING 7838
SWIDTH 375 0
DWIDTH 11 0
BBX 9 19 1 0
BITMAP
0199980000
0920039000
1800008200
4500005500
5400004500
5400006400
5400008200
542996A000
54730B9000
5429946400
5400000900
5400000900
5400000910
5400000910
5400000900
5400000900
5400004600
5400029000
4599981000
ENDCHAR
STARTCHAR Ygrave
ENCODING 7922
SWIDTH 370 0
DWIDTH 10 0
BBX 10 23 0 0
BITMAP
0006300000
0000A00000
0000430000
0000000000
8100000008
3700000028
0900000082
0450000190
0090000730
0064000900
0009005400
0007309000
0001946000
00008A0000
0000380000
0000270000
0000270000
0000270000
0000270000
0000270000
0000270000
0000270000
0000260000
ENDCHAR
STARTCHAR ygrave
ENCODING 7923
SWIDTH 285 0
DWIDTH 8 0
BBX 8 24 0 -5
BITMAP
00200000
00730000
000A0000
00046000
00000000
00000000
53000035
27000072
09000090
09000090
06300360
02700720
00900900
00900800
00633500
00277200
00099000
00098000
00065000
00071000
00090000
00180000
00730000
69600000
ENDCHAR
STARTCHAR endash
ENCODING 8211
SWIDTH 425 0
DWIDTH 12 0
BBX 10 1 1 6
BITMAP
7888888886
ENDCHAR
STARTCHAR emdash
ENCODING 8212
SWIDTH 770 0
DWIDTH 22 0
BBX 20 1 1 6
BITMAP
78888888888888888883
ENDCHAR
STARTCHAR quoteleft
ENCODING 8216
SWIDTH 145 0
DWIDTH 4 0
BBX 3 5 1 14
BITMAP
2A10
8200
9000
9000
8000
ENDCHAR
STARTCHAR quoteright
ENCODING 8217
SWIDTH 145 0
DWIDTH 4 0
BBX 3 5 0 14
BITMAP
0080
0090
0090
0180
1A20
ENDCHAR
STARTCHAR quotesinglbase
ENCODING 8218
SWIDTH 145 0
DWIDTH 4 0
BBX 3 5 0 -2
BITMAP
0350
0360
0360
0540
3A00
ENDCHAR
STARTCHAR quotedblleft
ENCODING 8220
SWIDTH 219 0
DWIDTH 6 0
BBX 5 5 1 14
BITMAP
2A2A20
826300
908100
908100
807100
ENDCHAR
STARTCHAR quotedblright
ENCODING 8221
SWIDTH 219 0
DWIDTH 6 0
BBX 5 5 0 14
BITMAP
008080
009090
009090
018190
1A2A30
ENDCHAR
STARTCHAR quotedblbase
ENCODING 8222
SWIDTH 219 0
DWIDTH 6 0
BBX 5 5 0 -2
BITMAP
035260
036270
036270
054450
3A2A10
ENDCHAR
STARTCHAR bullet
ENCODING 8226
SWIDTH 355 0
DWIDTH 10 0
BBX 8 7 1 6
BITMAP
019EE910
0CFFFFB0
3FFFFFF2
4FFFFFF3
1EFFFFE1
05FFFE50
00266200
ENDCHAR
STARTCHAR ellipsis
ENCODING 8230
SWIDTH 651 0
DWIDTH 18 0
BBX 14 3 2 0
BITMAP
60000024000006
90000036000009
80000036000008
ENDCHAR
STARTCHAR guilsinglleft
ENCODING 8249
SWIDTH 263 0
DWIDTH 7 0
BBX 6 11 1 3
BITMAP
000041
000380
002900
01A000
1A1000
A20000
580000
066000
007500
000840
000081
ENDCHAR
STARTCHAR guilsinglright
ENCODING 8250
SWIDTH 263 0
DWIDTH 7 0
BBX 6 11 1 2
BITMAP
820000
1A1000
01A100
002900
000390
0000A2
000840
006500
056000
470000
500000
ENDCHAR
STARTCHAR fraction
ENCODING 8260
SWIDTH 152 0
DWIDTH 4 0
BBX 10 19 -3 0
BITMAP
0000000008
0000000037
0000000091
0000000370
0000000910
0000003700
0000009100
0000037000
0000091000
0000370000
0000910000
0003700000
0009100000
0036000000
0090000000
0360000000
0900000000
3600000000
8000000000
ENDCHAR
STARTCHAR uni2074
ENCODING 8308
SWIDTH 247 0
DWIDTH 7 0
BBX 6 8 0 11
BITMAP
000800
003700
009450
027450
081450
1A9AB6
000450
000350
ENDCHAR
STARTCHAR Euro
ENCODING 8364
SWIDTH 391 0
DWIDTH 11 0
BBX 10 19 0 0
BITMAP
0000299993
0003A10006
000A100000
0046000000
0091000000
00A0000000
0090000000
0180000000
7AC9993000
0370000000
7AC9993000
0180000000
0090000000
0090000000
0081000000
0046000000
000A100000
0002A10005
0000299993
ENDCHAR
STARTCHAR trademark
ENCODING 8482
SWIDTH 506 0
DWIDTH 14 0
BBX 13 10 0 10
BITMAP
6FFFF63B2005A0
0044003AC48990
004400360C7090
00440036189090
004400360B7090
004400360A5090
00440036199090
004400360C7090
00440036000090
00440035000080
ENDCHAR
STARTCHAR minus
ENCODING 8722
SWIDTH 557 0
DWIDTH 16 0
BBX 14 1 1 8
BITMAP
BDDDDDDDDDDDD5
ENDCHAR
STARTCHAR uni2215
ENCODING 8725
SWIDTH 259 0
DWIDTH 7 0
BBX 7 20 0 0
BITMAP
00000080
00000090
00000360
00000810
00000900
00003600
00008100
00009000
00036000
00082000
00090000
00370000
00720000
00900000
02700000
07200000
09000000
27000000
72000000
80000000
ENDCHAR
STARTCHAR .notdef
ENCODING -1
SWIDTH 500 0
DWIDTH 14 0
BBX 12 27 1 -6
BITMAP
122222222221
9FFFFFFFFFF9
9D44444444D9
9C00000000C9
9C00000000C9
9C00000000C9
9C00000000C9
9C00000000C9
9C00000000C9
9C00000000C9
9C00000000C9
9C00000000C9
9C00000000C9
9C00000000C9
9C00000000C9
9C00000000C9
9C00000000C9
9C00000000C9
9C00000000C9
9C00000000C9
9C00000000C9
9C00000000C9
9C00000000C9
9C00000000C9
9C22222222C9
9FFFFFFFFFF9
244444444442
ENDCHAR
STARTCHAR NULL
ENCODING -1
SWIDTH 600 0
DWIDTH 17 0
BBX 1 1 0 0
BITMAP
00
ENDCHAR
STARTCHAR acutecomb.case
ENCODING -1
SWIDTH 0 0
DWIDTH 0 0
BBX 3 3 1 20
BITMAP
0270
0A10
2500
ENDCHAR
STARTCHAR uni0302.case
ENCODING -1
SWIDTH 0 0
DWIDTH 0 0
BBX 5 4 1 20
BITMAP
001000
02B500
0A1920
230140
ENDCHAR
STARTCHAR uni0308.case
ENCODING -1
SWIDTH 0 0
DWIDTH 0 0
BBX 4 3 1 20
BITMAP
3306
5409
4408
ENDCHAR
STARTCHAR uni0307.case
ENCODING -1
SWIDTH 0 0
DWIDTH 0 0
BBX 2 3 1 20
BITMAP
33
54
44
ENDCHAR
STARTCHAR gravecomb.case
ENCODING -1
SWIDTH 0 0
DWIDTH 0 0
BBX 3 3 1 20
BITMAP
2700
0920
0160
ENDCHAR
STARTCHAR uni030A.case
ENCODING -1
SWIDTH 0 0
DWIDTH 0 0
BBX 4 3 1 20
BITMAP
0883
4508
0883
ENDCHAR
STARTCHAR tildecomb.case
ENCODING -1
SWIDTH 0 0
DWIDTH 0 0
BBX 6 2 1 20
BITMAP
088215
341892
ENDCHAR
ENDFONT
